<?xml version="1.0" encoding="utf-8"?>
<!-- Generator: Adobe Illustrator 19.2.1, SVG Export Plug-In . SVG Version: 6.00 Build 0)  -->
<svg version="1.1" id="レイヤー_1" xmlns="http://www.w3.org/2000/svg" xmlns:xlink="http://www.w3.org/1999/xlink" x="0px"
	 y="0px" viewBox="0 0 76.3 15.8" style="enable-background:new 0 0 76.3 15.8;" xml:space="preserve">
<style type="text/css">
	.st0{fill:#0099FF;}
</style>
<path class="st0" d="M22,0.2l-3.9,3.9h0.6l3.9-3.9H22z M20.8,0.2l-3.9,3.9h0.6l3.9-3.9H20.8z M19.6,0.2l-3.9,3.9h0.6l3.9-3.9H19.6z"
	/>
<path class="st0" d="M19,0.2h-0.6l-3.9,3.9H15L11.1,8h0.6l-3.9,3.9H7.2L11.1,8h-0.6l3.9-3.9h-0.6l3.9-3.9H3.9L0,4.1h6.3L2.4,8h3.1
	l-3.9,3.9h3.1l-3.9,3.9h5.6l3.9-3.9H9.6L13.5,8h-0.6L9,11.9H8.4L12.3,8h-0.6l3.9-3.9H15C15,4.1,19,0.2,19,0.2z M13.8,4.1L9.9,8H9.3
	l3.9-3.9C13.2,4.1,13.8,4.1,13.8,4.1z M12,4.1h0.6L8.7,8H8.1L12,4.1z M9.3,15.8h0.6l3.9-3.9h-0.6L9.3,15.8z M12,11.9l-3.9,3.9h0.6
	l3.9-3.9H12z"/>
<path class="st0" d="M6.9,15.8h0.6l3.9-3.9h-0.6L14.7,8h-0.6l-3.9,3.9h0.6L6.9,15.8z M31.5,5.6h3.9l-1,2.4h-3.9L31.5,5.6z"/>
<path class="st0" d="M34.1,9.5h-3.4c-0.3,0-0.5-0.2-0.5-0.5V5.6h-1.8c-0.7,0-1.1,0.5-1.1,1.2v3.9c0,0.7,0.5,1.2,1,1.2h3.5
	c0.3,0,0.5,0.2,0.5,0.5v0.5c0,0.3-0.2,0.5-0.5,0.5h-4.1l-1,2.4H34c0.7,0,1.1-0.5,1.1-1.2v-3.9C35.2,10,34.8,9.5,34.1,9.5"/>
<path class="st0" d="M41.6,5.6h2.9v10.3h-2.9V5.6z"/>
<path class="st0" d="M37.3,15.8c-0.6,0-1.1-0.5-1.1-1.2v-9h2.9v7.3c0,0.3,0.1,0.5,0.5,0.5h1.8l-1,2.4C40.4,15.8,37.3,15.8,37.3,15.8
	z M59.1,11.4l-1.3,2.5h2.7l0.5,1.9h2.9L61,5.6h-3.9l-2.9,10.2h2.9L59,8l0.9,3.4H59.1z"/>
<path class="st0" d="M73.4,5.6h2.9v10.3h-2.9V5.6z M19,5.6L16.6,8h4.1v7.8h2.9V8h2.5l1.1-2.4H19z M64.3,5.6h2.9v10.3h-2.9V5.6z"/>
<path class="st0" d="M72.6,5.6h-2.9l-2.3,4.8l2.3,5.4h3.1l-2.5-5.6L72.6,5.6z M54,9.2V6.8c0-0.7-0.5-1.2-1.1-1.2h-3l-1,2.4h1.8
	c0.3,0,0.5,0.2,0.5,0.5V9c0,0.3-0.2,0.5-0.5,0.5h-2V5.6h-2.9v10.3h7.1c0.7,0,1.1-0.5,1.1-1.2v-2.8c0-0.7-0.5-1.2-1.1-1.2v-0.2
	C53.5,10.4,54,9.8,54,9.2 M51.1,12.9c0,0.3-0.2,0.5-0.5,0.5h-2v-1.5h2c0.3,0,0.5,0.2,0.5,0.5V12.9z"/>
<path class="st0" d="M26.4,0.2H27v3.2h-0.6V0.2z M28.1,1h0.6v0.3C28.9,1.1,29.1,1,29.4,1c0.6,0,0.8,0.4,0.8,0.9v1.5h-0.6V2.1
	c0-0.3,0-0.7-0.4-0.7s-0.5,0.5-0.5,0.8v1.2h-0.6V1z M31.1,1h0.6v0.3C31.9,1.1,32.2,1,32.5,1c0.6,0,0.8,0.4,0.8,0.9v1.5h-0.6V2.1
	c0-0.3,0-0.7-0.4-0.7s-0.5,0.5-0.5,0.8v1.2h-0.6L31.1,1L31.1,1z M35.2,1c0.7,0,1.3,0.5,1.3,1.3c0,0.7-0.5,1.2-1.3,1.2S34,3,34,2.3
	C34,1.4,34.5,1,35.2,1 M35.2,3c0.5,0,0.6-0.4,0.6-0.8s-0.2-0.7-0.6-0.7c-0.4,0-0.6,0.4-0.6,0.7C34.6,2.6,34.8,3,35.2,3 M36.9,1h0.6
	l0.6,1.8L38.7,1h0.6l-0.9,2.4h-0.7L36.9,1z M40,1.2C40.2,1,40.6,1,40.8,1c0.7,0,1,0.3,1,1v1.4h-0.5V3c-0.1,0.3-0.5,0.4-0.7,0.4
	c-0.4,0-0.8-0.3-0.8-0.7S40,2.1,40.2,2c0.2-0.1,0.5-0.1,0.8-0.1h0.3c0-0.4-0.2-0.5-0.5-0.5s-0.5,0.1-0.7,0.3L40,1.2z M40.7,3
	c0.2,0,0.3-0.1,0.4-0.2c0.1-0.1,0.1-0.3,0.1-0.5H41c-0.3,0-0.7,0-0.7,0.4C40.3,2.9,40.5,3,40.7,3 M42.9,1.5h-0.5V1h0.5V0.6l0.6-0.2
	V1h0.6v0.5h-0.6v1.1c0,0.2,0.1,0.4,0.3,0.4c0.1,0,0.2,0,0.3-0.1v0.5c-0.1,0-0.3,0.1-0.5,0.1c-0.5,0-0.8-0.3-0.8-0.8V1.5H42.9z M45,0
	h0.6v0.6H45V0z M45,1h0.6v2.4H45V1z M47.6,1c0.7,0,1.2,0.5,1.2,1.3c0,0.7-0.5,1.2-1.2,1.2c-0.8,0-1.2-0.5-1.2-1.2
	C46.4,1.4,46.9,1,47.6,1 M47.6,3c0.5,0,0.6-0.4,0.6-0.8S48,1.5,47.6,1.5c-0.4,0-0.6,0.4-0.6,0.7C47,2.6,47.1,3,47.6,3 M49.5,1h0.6
	v0.3C50.3,1.1,50.5,1,50.9,1c0.6,0,0.8,0.4,0.8,0.9v1.5h-0.6V2.1c0-0.3,0-0.7-0.4-0.7s-0.5,0.5-0.5,0.8v1.2h-0.6L49.5,1L49.5,1z
	 M53.9,0h0.6v0.6h-0.6V0z M53.9,1h0.6v2.4h-0.6V1z M55.4,1H56v0.3C56.2,1.1,56.4,1,56.8,1c0.6,0,0.8,0.4,0.8,0.9v1.5H57V2.1
	c0-0.3,0-0.7-0.4-0.7s-0.5,0.5-0.5,0.8v1.2h-0.6L55.4,1L55.4,1z M59.8,0.2h1.1l0.7,2.4l0.8-2.4h1v3.2h-0.6V0.7l-0.9,2.7h-0.6
	l-0.9-2.7v2.7h-0.6L59.8,0.2z M65.4,1c0.7,0,1.2,0.5,1.2,1.3c0,0.7-0.5,1.2-1.2,1.2c-0.8,0-1.2-0.5-1.2-1.2C64.1,1.4,64.7,1,65.4,1
	 M65.4,3C65.8,3,66,2.6,66,2.2s-0.2-0.7-0.6-0.7s-0.6,0.4-0.6,0.7C64.8,2.6,64.9,3,65.4,3 M67.5,1.5H67V1h0.5V0.6l0.6-0.2V1h0.6v0.5
	h-0.6v1.1c0,0.2,0.1,0.4,0.3,0.4c0.1,0,0.2,0,0.3-0.1v0.5c-0.1,0-0.3,0.1-0.5,0.1c-0.5,0-0.8-0.3-0.8-0.8L67.5,1.5L67.5,1.5z
	 M69.6,0h0.6v0.6h-0.6V0z M69.6,1h0.6v2.4h-0.6V1z M72.2,1c0.7,0,1.3,0.5,1.3,1.3c0,0.7-0.5,1.2-1.3,1.2S71,3,71,2.3
	C70.9,1.4,71.5,1,72.2,1 M72.2,3c0.5,0,0.6-0.4,0.6-0.8s-0.2-0.7-0.6-0.7s-0.6,0.4-0.6,0.7C71.6,2.6,71.7,3,72.2,3 M74,1h0.6v0.3
	C74.8,1.1,75.1,1,75.4,1c0.6,0,0.8,0.4,0.8,0.9v1.5h-0.6V2.1c0-0.3,0-0.7-0.4-0.7s-0.5,0.5-0.5,0.8v1.2H74V1z"/>
</svg>
